HIERARCHY
ROOT Hips
{
  OFFSET 5.84602e-005 68.8428 3.50346
  CHANNELS 6 Xposition Yposition Zposition Zrotation Xrotation Yrotation
  JOINT Spine
  {
    OFFSET 0 8.597 -4.6522
    CHANNELS 3 Zrotation Xrotation Yrotation
    JOINT Spine1
    {
      OFFSET 0 7.8454 0.4098
      CHANNELS 3 Zrotation Xrotation Yrotation
      JOINT Spine2
      {
        OFFSET 0 9.7078 -2.1609
        CHANNELS 3 Zrotation Xrotation Yrotation
        JOINT Neck
        {
          OFFSET 0 21.8761 -0.4549
          CHANNELS 3 Zrotation Xrotation Yrotation
          JOINT Head
          {
            OFFSET 0 12.3537 3.3602
            CHANNELS 3 Zrotation Xrotation Yrotation
            End Site
            {
              OFFSET 0.0001 18.9506 0.5657
            }
          }
        }
        JOINT LeftShoulder
        {
          OFFSET 2.2086 21.1115 7.2329
          CHANNELS 3 Zrotation Xrotation Yrotation
          JOINT LeftArm
          {
            OFFSET 13.1193 3.0282 -4.8998
            CHANNELS 3 Zrotation Xrotation Yrotation
            JOINT LeftForeArm
            {
              OFFSET 27.4081 -0.0973053 -0.2375
              CHANNELS 3 Zrotation Xrotation Yrotation
              JOINT LeftHand
              {
                OFFSET 22.8641 0.0662994 -0.1369
                CHANNELS 3 Zrotation Xrotation Yrotation
                JOINT LeftHandIndex1
                {
                  OFFSET 8.8614 0.775009 2.4612
                  CHANNELS 3 Zrotation Xrotation Yrotation
                  JOINT LeftHandIndex2
                  {
                    OFFSET 3.3146 -0.808304 0.5841
                    CHANNELS 3 Zrotation Xrotation Yrotation
                    JOINT LeftHandIndex3
                    {
                      OFFSET 2.2628 -0.552002 0.3989
                      CHANNELS 3 Zrotation Xrotation Yrotation
                      End Site
                      {
                        OFFSET 1.6102 -0.4807 0.2612
                      }
                    }
                  }
                }
                JOINT LeftHandMiddle1
                {
                  OFFSET 8.9937 0.895004 0.2143
                  CHANNELS 3 Zrotation Xrotation Yrotation
                  JOINT LeftHandMiddle2
                  {
                    OFFSET 4.0984 0.0113983 -0.0242
                    CHANNELS 3 Zrotation Xrotation Yrotation
                    JOINT LeftHandMiddle3
                    {
                      OFFSET 2.2716 0.00689697 -0.0138001
                      CHANNELS 3 Zrotation Xrotation Yrotation
                      End Site
                      {
                        OFFSET 2.0404 -0.1441 0.0027
                      }
                    }
                  }
                }
                JOINT LeftHandRing1
                {
                  OFFSET 8.5234 0.597198 -2.0164
                  CHANNELS 3 Zrotation Xrotation Yrotation
                  JOINT LeftHandRing2
                  {
                    OFFSET 3.7188 -0.188293 -0.2328
                    CHANNELS 3 Zrotation Xrotation Yrotation
                    JOINT LeftHandRing3
                    {
                      OFFSET 2.1191 -0.106598 -0.1332
                      CHANNELS 3 Zrotation Xrotation Yrotation
                      End Site
                      {
                        OFFSET 1.8737 -0.2304 -0.0886
                      }
                    }
                  }
                }
                JOINT LeftHandPinky1
                {
                  OFFSET 7.9094 -0.601089 -3.4825
                  CHANNELS 3 Zrotation Xrotation Yrotation
                  JOINT LeftHandPinky2
                  {
                    OFFSET 2.2874 -0.477005 -0.6314
                    CHANNELS 3 Zrotation Xrotation Yrotation
                    JOINT LeftHandPinky3
                    {
                      OFFSET 1.6774 -0.349396 -0.4633
                      CHANNELS 3 Zrotation Xrotation Yrotation
                      End Site
                      {
                        OFFSET 1.4888 -0.4091 -0.3416
                      }
                    }
                  }
                }
                JOINT LeftHandThumb1
                {
                  OFFSET 1.833 -1.3875 1.3896
                  CHANNELS 3 Zrotation Xrotation Yrotation
                  JOINT LeftHandThumb2
                  {
                    OFFSET 3.4129 -1.121 2.5732
                    CHANNELS 3 Zrotation Xrotation Yrotation
                    JOINT LeftHandThumb3
                    {
                      OFFSET 2.2474 -0.804199 1.6192
                      CHANNELS 3 Zrotation Xrotation Yrotation
                      End Site
                      {
                        OFFSET 1.6527 -0.5689 1.1317
                      }
                    }
                  }
                }
              }
            }
          }
        }
        JOINT RightShoulder
        {
          OFFSET -2.2086 21.1115 7.2329
          CHANNELS 3 Zrotation Xrotation Yrotation
          JOINT RightArm
          {
            OFFSET -13.1216 3.0287 -4.9007
            CHANNELS 3 Zrotation Xrotation Yrotation
            JOINT RightForeArm
            {
              OFFSET -27.4081 -0.0973053 -0.2375
              CHANNELS 3 Zrotation Xrotation Yrotation
              JOINT RightHand
              {
                OFFSET -22.8641 0.0664063 -0.1369
                CHANNELS 3 Zrotation Xrotation Yrotation
                JOINT RightHandIndex1
                {
                  OFFSET -8.8614 0.774994 2.4612
                  CHANNELS 3 Zrotation Xrotation Yrotation
                  JOINT RightHandIndex2
                  {
                    OFFSET -3.3146 -0.808304 0.5841
                    CHANNELS 3 Zrotation Xrotation Yrotation
                    JOINT RightHandIndex3
                    {
                      OFFSET -2.2628 -0.552002 0.3989
                      CHANNELS 3 Zrotation Xrotation Yrotation
                      End Site
                      {
                        OFFSET -1.6102 -0.4807 0.2612
                      }
                    }
                  }
                }
                JOINT RightHandMiddle1
                {
                  OFFSET -8.9937 0.894989 0.2143
                  CHANNELS 3 Zrotation Xrotation Yrotation
                  JOINT RightHandMiddle2
                  {
                    OFFSET -4.0984 0.0113983 -0.0242
                    CHANNELS 3 Zrotation Xrotation Yrotation
                    JOINT RightHandMiddle3
                    {
                      OFFSET -2.2716 0.00691223 -0.0138001
                      CHANNELS 3 Zrotation Xrotation Yrotation
                      End Site
                      {
                        OFFSET -2.0404 -0.1441 0.0027
                      }
                    }
                  }
                }
                JOINT RightHandRing1
                {
                  OFFSET -8.5234 0.597198 -2.0164
                  CHANNELS 3 Zrotation Xrotation Yrotation
                  JOINT RightHandRing2
                  {
                    OFFSET -3.7188 -0.188309 -0.2328
                    CHANNELS 3 Zrotation Xrotation Yrotation
                    JOINT RightHandRing3
                    {
                      OFFSET -2.1191 -0.106598 -0.1332
                      CHANNELS 3 Zrotation Xrotation Yrotation
                      End Site
                      {
                        OFFSET -1.8737 -0.2304 -0.0886
                      }
                    }
                  }
                }
                JOINT RightHandPinky1
                {
                  OFFSET -7.9094 -0.601105 -3.4825
                  CHANNELS 3 Zrotation Xrotation Yrotation
                  JOINT RightHandPinky2
                  {
                    OFFSET -2.2874 -0.477005 -0.6314
                    CHANNELS 3 Zrotation Xrotation Yrotation
                    JOINT RightHandPinky3
                    {
                      OFFSET -1.6774 -0.349396 -0.4633
                      CHANNELS 3 Zrotation Xrotation Yrotation
                      End Site
                      {
                        OFFSET -1.4888 -0.4091 -0.3416
                      }
                    }
                  }
                }
                JOINT RightHandThumb1
                {
                  OFFSET -1.833 -1.38751 1.3896
                  CHANNELS 3 Zrotation Xrotation Yrotation
                  JOINT RightHandThumb2
                  {
                    OFFSET -3.41299 -1.12099 2.5732
                    CHANNELS 3 Zrotation Xrotation Yrotation
                    JOINT RightHandThumb3
                    {
                      OFFSET -2.24741 -0.804108 1.6192
                      CHANNELS 3 Zrotation Xrotation Yrotation
                      End Site
                      {
                        OFFSET -1.6527 -0.5689 1.1317
                      }
                    }
                  }
                }
              }
            }
          }
        }
      }
    }
  }
  JOINT RightUpLeg
  {
    OFFSET -9.1966 3.8861 -0.7581
    CHANNELS 3 Zrotation Xrotation Yrotation
    JOINT RightLeg
    {
      OFFSET -0.7359 -41.0265 0
      CHANNELS 3 Zrotation Xrotation Yrotation
      JOINT RightFoot
      {
        OFFSET 0 -40.2855 0
        CHANNELS 3 Zrotation Xrotation Yrotation
        JOINT RightToeBase
        {
          OFFSET 0 -5.6122 11.7359
          CHANNELS 3 Zrotation Xrotation Yrotation
          End Site
          {
            OFFSET 0 0 7.8731
          }
        }
      }
    }
  }
  JOINT LeftUpLeg
  {
    OFFSET 9.1965 3.8864 -0.7581
    CHANNELS 3 Zrotation Xrotation Yrotation
    JOINT LeftLeg
    {
      OFFSET 0.7359 -41.0268 0
      CHANNELS 3 Zrotation Xrotation Yrotation
      JOINT LeftFoot
      {
        OFFSET 0 -40.2855 0
        CHANNELS 3 Zrotation Xrotation Yrotation
        JOINT LeftToeBase
        {
          OFFSET 0 -5.6122 11.7359
          CHANNELS 3 Zrotation Xrotation Yrotation
          End Site
          {
            OFFSET 0 0 7.8731
          }
        }
      }
    }
  }
}
MOTION
Frames:	6
Frame Time:	0.0333333
5.84602e-005 68.8428 3.50346 0 0 -0 0 0 -0 0 0 -0 0 0 -0 0 0 -0 0 0 -0 0 0 -0 0 0 -0 0 0 -0 0 0 -0 0 0 -0 0 0 -0 0 0 -0 0 0 -0 -0.0146107 -8.87603e-005 -2.63497e-007 2.99804e-018 -2.42657e-020 -1.42182e-022 0 0 -0 -0.0187562 -0.001176 5.858e-005 5.06224e-018 3.88251e-019 1.21329e-020 0 0 -0 -0.012269 -0.00324817 0.000675346 -1.74678e-018 3.88251e-019 -0 0 0 -0 0 0 -0 0 0 -0 0 0 -0 0 0 -0 0 0 -0 0 0 -0 0 0 -0 0 0 -0 0 0 -0 0 0 -0 0.0149955 -9.10982e-005 2.64101e-007 -9.69331e-018 1.21329e-020 -4.7394e-023 0 0 -0 0.0189956 -0.00119102 -5.96516e-005 -5.41541e-019 0 2.42657e-020 0 0 -0 0.0122698 -0.00324857 -0.000673756 -2.00796e-019 0 -1.94126e-019 0 0 -0 0 0 -0 0 0 -0 3.39842 1.33031 -0.0637918 -5.65207e-008 0.834868 -0.000436188 -3.39935 -2.16518 -0.0642563 -8.89002e-024 -1.18485e-023 -1.48106e-024 -3.39844 1.35642 0.0640283 -3.18788e-007 0.782166 -0.000588827 3.39931 -2.13858 0.0634662 1.1399e-023 0 -0 
-0.0143086 28.9084 3.72335 0 0 -0 0.122325 0.00428252 -0.751841 0.244695 0.00695956 -1.50369 0.244695 0.00695956 -1.50369 0.0246159 -0.00650283 -3.91056e-005 0.0915769 -0.0313638 -0.22088 -12.1839 1.64912 -32.8935 -4.92442 0.89104 -19.1845 -22.5187 -6.963 -11.93 19.926 -10.1851 -14.3474 7.95139e-016 -7.45443e-015 3.18055e-015 1.59028e-015 -8.34896e-015 6.36111e-015 1.19271e-015 -1.26228e-014 1.59028e-015 7.95139e-016 -7.45443e-015 3.18055e-015 -0.0146572 -9.06106e-005 -5.97512e-006 4.05786e-007 1.73897e-006 1.09784e-006 7.95139e-016 -7.45443e-015 3.18055e-015 -0.0187785 -0.00118185 5.44578e-005 1.98785e-015 6.75868e-015 -0 7.95139e-016 -7.45443e-015 3.18055e-015 -0.0122116 -0.0032347 0.000677161 -3.97569e-016 -7.05686e-015 3.18055e-015 7.95139e-016 -7.45443e-015 3.18055e-015 1.59028e-015 -8.34896e-015 6.36111e-015 1.19271e-015 -1.26228e-014 1.59028e-015 -3.8009 -1.14809 -0.449526 -9.23114 -3.31657 10.7868 35.9898 -9.00473 125.655 5.19436 0.00323752 -0.0235336 7.66058e-007 2.26856e-007 -2.54284e-006 1.14692e-006 -8.3839e-008 -8.18132e-007 7.66058e-007 2.26856e-007 -2.54284e-006 7.66058e-007 2.26856e-007 -2.54284e-006 0.0151064 -9.1634e-005 -3.86497e-006 3.42217e-007 -7.66551e-007 -1.51992e-007 7.66058e-007 2.26856e-007 -2.54284e-006 0.0189816 -0.00119073 -6.05586e-005 3.42215e-007 -7.66555e-007 -1.51969e-007 7.66058e-007 2.26856e-007 -2.54284e-006 0.0122691 -0.00324753 -0.000681719 3.42218e-007 -7.66544e-007 -1.5202e-007 7.66058e-007 2.26856e-007 -2.54284e-006 1.14692e-006 -8.3839e-008 -8.18132e-007 7.66058e-007 2.26856e-007 -2.54284e-006 -1.41795 -36.7374 -6.98774 -171.837 67.153 171.963 1.12021 23.8021 -21.2681 -1.61908e-006 -3.28094e-007 -1.93826e-006 1.48578 -36.7257 6.96548 171.832 67.164 -171.963 -1.08846 23.8051 21.1746 -8.49825e-007 -9.55945e-006 -1.87e-006 
0.0502381 10.8859 3.73747 0 0 -0 0.181198 -0.00370451 -1.0828 0.362295 -0.0108325 -2.16558 0.362295 -0.0108325 -2.16558 0.0356862 -0.00897945 -4.21303e-006 0.185601 -0.0519509 -0.438464 -17.0042 1.82999 -47.6757 -6.84177 1.17785 -27.7693 -33.5755 -10.1366 -18.0985 27.0487 -14.0138 -21.2505 1.59028e-015 -1.27222e-014 -1.59028e-015 4.77083e-015 -1.59028e-014 -0 3.18055e-015 -2.22639e-014 1.59028e-015 1.59028e-015 -1.27222e-014 -1.59028e-015 -0.0146211 -9.22938e-005 1.64891e-006 1.11319e-014 -2.10712e-014 -1.59028e-015 1.59028e-015 -1.27222e-014 -1.59028e-015 -0.0187238 -0.00117569 6.23478e-005 1.08533e-006 3.27053e-008 1.45342e-006 1.59028e-015 -1.27222e-014 -1.59028e-015 -0.0123018 -0.00325843 0.000680781 -3.18055e-015 3.97569e-016 1.59028e-015 1.59028e-015 -1.27222e-014 -1.59028e-015 4.77083e-015 -1.59028e-014 -0 3.18055e-015 -2.22639e-014 1.59028e-015 -5.51718 -1.66468 -0.651909 -12.9802 -4.71425 15.6688 -70.0725 31.881 0.0421261 7.47479 -0.0112995 0.0823678 -2.98177e-015 -6.36111e-015 -3.97569e-016 -1.19271e-015 -3.18055e-015 -3.97569e-016 7.95139e-016 0 -3.97569e-016 -2.98177e-015 -6.36111e-015 -3.97569e-016 0.0149866 -9.22545e-005 2.07656e-006 -2.38542e-015 -6.36111e-015 7.95139e-016 -2.98177e-015 -6.36111e-015 -3.97569e-016 0.0189283 -0.00118772 -5.91515e-005 -9.93923e-016 3.18055e-015 -0 -2.98177e-015 -6.36111e-015 -3.97569e-016 0.0122316 -0.00323873 -0.000674661 2.98177e-015 3.18055e-015 -3.97569e-016 -2.98177e-015 -6.36111e-015 -3.97569e-016 -1.19271e-015 -3.18055e-015 -3.97569e-016 7.95139e-016 0 -3.97569e-016 -5.53941 -51.3462 -21.3762 -174.895 17.9463 166.753 13.234 30.5265 -38.7443 -4.76629e-006 1.91555e-006 -2.76691e-006 5.30225 -51.3435 21.4583 174.897 17.9423 -166.754 -13.4075 30.4289 39.0733 2.2017e-006 2.83588e-006 1.1161e-007 
0.19387 14.8152 3.72486 0 0 -0 0.167897 -0.00141955 -1.00968 0.335743 -0.00579744 -2.01936 0.335744 -0.00579745 -2.01936 0.0332372 -0.00865579 -5.64539e-005 0.28222 -0.0618533 -0.652769 -15.7087 1.6167 -44.3184 -6.17726 1.04772 -25.7472 -30.9883 -10.0964 -18.1878 25.1897 -12.6781 -19.9216 4.6346e-031 -8.34896e-015 3.18055e-015 -3.97569e-015 -1.15295e-014 -0 -7.95139e-016 -1.19271e-014 4.77083e-015 4.6346e-031 -8.34896e-015 3.18055e-015 -0.0146372 -9.09107e-005 -3.35556e-006 7.95139e-016 -1.23246e-014 -0 4.6346e-031 -8.34896e-015 3.18055e-015 -0.0187339 -0.00117385 6.14762e-005 -7.95139e-016 -6.36111e-015 -1.59028e-015 4.6346e-031 -8.34896e-015 3.18055e-015 -0.012244 -0.00323628 0.000682331 7.95139e-016 -6.36111e-015 1.59028e-015 4.6346e-031 -8.34896e-015 3.18055e-015 -3.97569e-015 -1.15295e-014 -0 -7.95139e-016 -1.19271e-014 4.77083e-015 -5.13547 -1.54988 -0.606961 -12.1683 -4.4115 14.5817 61.8293 -20.2648 170.345 6.84142 -0.043714 0.317689 1.65952e-006 8.11433e-007 3.42129e-007 1.68967e-014 3.18055e-015 7.15625e-015 1.64991e-014 3.18055e-015 6.36111e-015 1.65952e-006 8.11433e-007 3.42129e-007 0.0150596 -8.95306e-005 -3.92918e-007 3.8763e-015 1.59028e-015 -0 1.65952e-006 8.11433e-007 3.42129e-007 0.0190783 -0.00119509 -5.99652e-005 1.66206e-006 8.11332e-007 3.41969e-007 1.65952e-006 8.11433e-007 3.42129e-007 0.0121549 -0.00321748 -0.000671459 -1.68967e-015 -1.59028e-015 -0 1.65952e-006 8.11433e-007 3.42129e-007 1.68967e-014 3.18055e-015 7.15625e-015 1.64991e-014 3.18055e-015 6.36111e-015 -4.91404 -48.6971 -15.1898 -174.182 28.9341 169.961 9.15966 30.3264 -32.9026 -1.07453e-006 5.89005e-006 2.0988e-006 4.01887 -48.679 15.5091 174.178 28.9393 -169.958 -9.80697 30.0545 34.1958 3.17884e-006 5.08003e-006 -4.44195e-006 
0.323114 14.7589 3.69988 0 0 -0 0.167897 -0.00141954 -1.00968 0.335744 -0.00579742 -2.01936 0.335744 -0.00579743 -2.01936 0.0332409 -0.00845595 -5.91263e-005 0.378354 -0.0741363 -0.867741 -15.5119 1.44851 -44.2584 -5.97527 0.988709 -25.6534 -30.9435 -10.6229 -19.3976 24.8951 -12.2441 -20.1068 -8.82781e-032 1.59028e-015 3.18055e-015 -7.95139e-016 1.98785e-015 3.18055e-015 7.95139e-016 5.1684e-015 6.36111e-015 -8.82781e-032 1.59028e-015 3.18055e-015 -0.0145633 -8.90366e-005 1.74611e-006 -3.18055e-015 -1.55052e-014 -1.59028e-015 -8.82781e-032 1.59028e-015 3.18055e-015 -0.0187501 -0.00117503 6.04603e-005 7.95139e-016 4.57205e-015 1.59028e-015 -8.82781e-032 1.59028e-015 3.18055e-015 -0.0122795 -0.00325662 0.000673408 -2.38542e-015 -5.36719e-015 -0 -8.82781e-032 1.59028e-015 3.18055e-015 -7.95139e-016 1.98785e-015 3.18055e-015 7.95139e-016 5.1684e-015 6.36111e-015 -5.13547 -1.54988 -0.60696 -12.1683 -4.4115 14.5817 61.8293 -20.2648 170.345 6.73792 -0.0733502 0.529518 1.47935e-006 2.06555e-007 2.86814e-007 -7.35503e-015 -4.77083e-015 3.97569e-016 -4.77083e-015 -1.59028e-015 3.97569e-016 1.47935e-006 2.06555e-007 2.86814e-007 0.0149439 -8.99244e-005 -9.33295e-007 -2.98177e-016 1.59028e-015 -1.19271e-015 1.47935e-006 2.06555e-007 2.86814e-007 0.0189673 -0.00118947 -6.0154e-005 4.47266e-015 4.77083e-015 -1.19271e-015 1.47935e-006 2.06555e-007 2.86814e-007 0.0123 -0.00325488 -0.000679847 4.07509e-015 0 -1.98785e-015 1.47935e-006 2.06555e-007 2.86814e-007 -7.35503e-015 -4.77083e-015 3.97569e-016 -4.77083e-015 -1.59028e-015 3.97569e-016 -5.21076 -48.76 -15.087 -174.183 28.9301 169.963 8.95302 30.4355 -32.4784 -2.73563e-006 2.4972e-006 -1.46916e-006 3.7233 -48.7269 15.625 174.177 28.9419 -169.956 -10.0318 29.9823 34.6377 1.31675e-006 8.43337e-006 -1.06778e-006 
0.452364 14.7025 3.6749 0 0 -0 0.167897 -0.00141954 -1.00968 0.335744 -0.00579742 -2.01936 0.335744 -0.00579743 -2.01936 0.0332409 -0.00845595 -5.91263e-005 0.474477 -0.0867843 -1.08277 -15.3147 1.28037 -44.1978 -5.77312 0.930002 -25.5595 -30.9098 -11.1513 -20.6112 24.6019 -11.8084 -20.2899 -0 0 4.77083e-015 7.95139e-016 -2.38542e-015 3.18055e-015 2.38542e-015 5.96354e-016 1.59028e-015 -0 0 4.77083e-015 -0.0146143 -9.01606e-005 -1.53952e-006 2.38542e-015 1.27222e-014 1.59028e-015 -0 0 4.77083e-015 -0.018728 -0.0011709 5.36399e-005 2.38542e-015 -2.98177e-015 1.59028e-015 -0 0 4.77083e-015 -0.012304 -0.00325008 0.000674449 -6.97358e-007 2.91068e-007 -1.24869e-006 -0 0 4.77083e-015 7.95139e-016 -2.38542e-015 3.18055e-015 2.38542e-015 5.96354e-016 1.59028e-015 -5.13547 -1.54988 -0.60696 -12.1683 -4.4115 14.5817 61.8293 -20.2648 170.345 6.63449 -0.103385 0.741378 -5.22789e-008 7.95007e-007 2.92845e-007 4.77073e-006 -2.3235e-007 -6.32038e-008 1.62871e-006 1.73843e-006 2.94354e-007 -5.22789e-008 7.95007e-007 2.92845e-007 0.01494 -8.97302e-005 3.55963e-007 1.63067e-006 1.73846e-006 2.94126e-007 -5.22789e-008 7.95007e-007 2.92845e-007 0.0189229 -0.00118813 -5.84262e-005 -6.46783e-009 9.41413e-007 -1.04814e-007 -5.22789e-008 7.95007e-007 2.92845e-007 0.0121999 -0.00323012 -0.000670996 -6.46789e-009 9.41421e-007 -1.04758e-007 -5.22789e-008 7.95007e-007 2.92845e-007 4.77073e-006 -2.3235e-007 -6.32038e-008 1.62871e-006 1.73843e-006 2.94354e-007 -5.5055 -48.8282 -14.9826 -174.187 28.9217 169.966 8.74502 30.5433 -32.0529 -1.13131e-006 1.19988e-006 -1.32431e-006 3.42457 -48.7827 15.7384 174.179 28.9381 -169.954 -10.2561 29.9086 35.0794 -3.75076e-007 5.71625e-007 -5.23406e-006 
